<svg xmlns="http://www.w3.org/2000/svg" viewBox="0 0 64 32" role="img" aria-labelledby="title">
  <title id="title">BSI</title>
  <path fill="#00a39b" d="M4 7h12c6 0 9 2 9 6 0 2-1 4-4 5 4 1 6 3 6 6 0 5-4 7-10 7H4V7Zm8 5v4h4c2 0 3-1 3-2s-1-2-3-2h-4Zm0 9v5h5c2 0 3-1 3-3 0-1-1-2-3-2h-5Zm17 2h7c0 2 1 3 4 3 2 0 3-1 3-2 0-2-2-2-5-3-5-1-9-3-9-7 0-5 4-8 10-8 7 0 10 3 11 9h-7c0-2-2-3-4-3s-3 1-3 2c0 2 2 2 5 3 6 1 9 3 9 8 0 5-4 8-11 8-6 0-10-3-10-8Zm25-16h7v24h-7V7Z"/>
  <path fill="#fdbb30" d="m57 1 2 3 4 1-3 3v4l-3-2-4 2 1-4-3-3 4-1 2-3Z"/>
</svg>
