<svg xmlns="http://www.w3.org/2000/svg" viewBox="0 0 64 32" role="img" aria-labelledby="title">
  <title id="title">Mandiri</title>
  <path fill="#fdb913" d="M27 4c5-5 8 5 13 0 5-5 8 5 13 0 3-3 6 0 8 2-5 5-8-5-13 0-5 5-8-5-13 0-4 4-7-1-8-2Zm0 7c5-5 8 5 13 0 5-5 8 5 13 0 3-3 6 0 8 2-5 5-8-5-13 0-5 5-8-5-13 0-4 4-7-1-8-2Z"/>
  <path fill="#003b71" d="M3 17h5v2c1-2 3-3 5-3 3 0 4 1 5 3 2-2 4-3 6-3 4 0 6 2 6 7v8h-6v-7c0-2-1-3-2-3-2 0-3 1-3 4v6h-6v-7c0-2-1-3-2-3-2 0-3 1-3 4v6H3V17Zm31-1c6 0 9 3 9 8s-3 8-9 8c-1 0-3 0-4-1v-5c1 1 2 1 3 1 3 0 4-1 4-3s-1-3-4-3h-1v-5h2Zm11 1h6v14h-6V17Zm9 0h6v14h-6V17Z"/>
</svg>
